<svg xmlns="http://www.w3.org/2000/svg" fill="none" viewBox="0 0 99 143"><path fill="#D6A269" d="M83.7 142.261c-1.115-1.116-2.509-1.952-3.624-3.068-1.952-1.951-3.904-3.903-5.298-6.134-5.856-9.202-12.548-17.846-19.798-26.211-6.692-7.808-13.663-15.894-20.076-23.98-9.202-11.712-18.125-23.98-25.096-37.365C6.183 38.811 2.558 32.12.606 24.87c-.279-.837-.557-1.394-.557-2.23-.28-4.183.557-5.02 4.74-6.135 3.904-1.116 6.97-.558 10.596 1.394 11.153 6.134 21.47 13.663 30.672 22.865C53.865 48.57 60.836 56.657 66.97 65.58c.279.557.558.836 1.394 1.673 0-1.116.28-1.673.28-2.23-2.231-10.318-4.741-20.635-6.693-31.231-1.394-7.25-2.788-14.5-3.067-22.028 0-3.068.279-6.135 1.952-9.202C63.903.61 67.528-.227 71.432.052c3.346.28 6.134 2.51 8.086 5.577 3.904 6.135 6.692 12.827 9.202 19.519 3.346 10.038 5.855 20.076 6.97 30.393.837 6.135 1.116 12.27 1.953 18.404 1.394 10.875.278 21.47.557 32.345 0 2.789-.557 5.577-.557 8.366 0 1.394.557 3.067.557 4.461 0 2.231 0 4.461-.557 6.692-.558 2.231-1.673 4.183-2.51 6.135-1.394 3.067-3.067 3.346-6.134 1.673-1.116 2.788-2.51 5.576-3.625 8.365-.558.279-1.116.279-1.673.279ZM23.472 41.041c2.51 8.366 37.365 51.865 45.451 56.884-11.711-22.586-26.768-41.547-45.45-56.883Z"/></svg>