<?xml version="1.0" standalone="no"?>
<!DOCTYPE svg PUBLIC "-//W3C//DTD SVG 20010904//EN"
 "http://www.w3.org/TR/2001/REC-SVG-20010904/DTD/svg10.dtd">
<svg version="1.0" xmlns="http://www.w3.org/2000/svg"
 width="1144.000000pt" height="1144.000000pt" viewBox="0 0 1144.000000 1144.000000"
 preserveAspectRatio="xMidYMid meet">
<metadata>
Created by potrace 1.14, written by Peter Selinger 2001-2017
</metadata>
<g transform="translate(0.000000,1144.000000) scale(0.100000,-0.100000)"
fill="#000000" stroke="none">
<path d="M7195 11433 c-58 -7 -231 -45 -290 -65 -33 -11 -110 -45 -170 -75
-83 -40 -114 -61 -122 -81 -7 -15 -22 -49 -35 -77 -12 -27 -23 -52 -23 -55 -1
-3 -11 -36 -22 -75 -27 -89 -45 -177 -48 -236 -1 -26 -5 -50 -7 -55 -6 -10 -1
-396 6 -459 2 -22 7 -78 10 -125 3 -47 8 -92 10 -100 3 -8 7 -42 11 -75 5 -50
26 -213 40 -315 9 -63 25 -158 40 -242 2 -13 6 -39 9 -58 3 -19 10 -62 16 -95
7 -33 13 -69 15 -80 2 -16 47 -251 81 -430 4 -16 8 -39 9 -50 5 -25 23 -122
31 -155 3 -14 7 -34 8 -45 9 -57 18 -102 23 -115 3 -8 7 -24 8 -35 2 -23 4
-29 50 -251 19 -93 39 -183 44 -201 5 -18 7 -33 4 -33 -3 0 0 -6 6 -13 6 -8 9
-16 6 -19 -3 -3 6 -52 19 -109 14 -57 28 -116 31 -131 3 -16 7 -40 10 -55 3
-16 8 -35 10 -43 2 -8 7 -30 10 -49 3 -19 8 -37 10 -41 2 -4 7 -20 9 -36 3
-16 8 -40 11 -54 3 -14 8 -34 10 -45 7 -28 14 -62 19 -82 42 -179 88 -392 88
-405 -1 -10 4 -18 9 -18 6 0 8 -4 5 -8 -2 -4 9 -66 25 -137 16 -72 32 -141 34
-155 3 -14 14 -68 25 -120 13 -58 19 -111 15 -135 -3 -22 -8 -58 -11 -80 -3
-22 -7 -41 -9 -43 -6 -6 -75 66 -75 78 0 5 -4 10 -8 10 -5 0 -15 12 -23 28 -8
15 -18 32 -22 37 -4 6 -46 64 -93 130 -138 195 -168 235 -176 235 -5 0 -8 5
-8 10 0 10 -58 87 -213 283 -108 137 -145 181 -177 218 -14 15 -35 41 -47 56
-12 15 -33 42 -48 58 -14 17 -58 68 -98 114 -40 47 -81 94 -92 106 -11 11 -47
51 -80 89 -33 38 -76 86 -95 106 -19 21 -78 84 -130 141 -198 216 -738 746
-850 836 -33 26 -93 79 -129 113 -13 12 -192 160 -251 207 -59 47 -192 152
-216 170 -16 12 -38 29 -49 38 -40 31 -190 139 -314 225 -69 49 -131 94 -138
99 -7 6 -14 11 -17 11 -2 0 -39 24 -82 53 -131 88 -354 227 -364 227 -6 0 -10
5 -10 10 0 6 -5 10 -10 10 -6 0 -27 11 -48 23 -75 48 -92 57 -96 55 -2 -2 -12
4 -22 13 -57 49 -416 234 -478 246 -11 2 -25 8 -33 14 -7 6 -13 9 -13 5 0 -3
-10 -2 -23 3 -22 9 -58 16 -132 27 -47 8 -215 10 -215 3 0 -3 -10 -5 -22 -4
-69 5 -349 -76 -429 -124 -110 -67 -138 -137 -135 -333 2 -117 12 -169 53
-278 3 -8 8 -23 10 -33 4 -25 51 -174 68 -217 7 -19 32 -84 55 -145 108 -288
323 -732 566 -1173 13 -23 51 -95 85 -160 34 -64 68 -124 75 -133 8 -8 14 -23
14 -32 0 -9 5 -17 10 -17 6 0 10 -4 10 -9 0 -10 116 -214 227 -401 75 -125 87
-144 158 -255 21 -33 38 -62 38 -65 0 -3 10 -17 23 -32 12 -16 25 -37 29 -48
3 -11 11 -20 16 -20 5 0 9 -5 9 -10 0 -13 220 -344 232 -348 4 -2 8 -8 8 -14
0 -6 11 -26 25 -44 14 -18 25 -37 25 -43 0 -6 4 -11 8 -11 9 0 62 -77 62 -90
0 -5 4 -10 8 -12 4 -1 34 -41 67 -88 33 -47 65 -91 72 -98 7 -7 13 -16 13 -20
0 -4 12 -20 26 -37 14 -16 32 -42 40 -57 8 -16 19 -28 24 -28 6 0 10 -5 10
-11 0 -6 22 -40 50 -75 27 -35 50 -68 50 -73 0 -5 3 -11 8 -13 8 -3 132 -166
132 -174 0 -2 8 -12 18 -22 9 -11 25 -31 35 -45 10 -14 54 -71 97 -127 43 -56
87 -113 97 -127 10 -13 26 -34 35 -46 26 -32 26 -32 123 -157 49 -63 111 -142
138 -175 53 -65 55 -68 113 -140 21 -28 47 -59 56 -70 15 -18 79 -97 165 -201
17 -22 39 -49 50 -60 10 -12 30 -37 45 -55 14 -19 40 -50 56 -69 16 -19 82
-98 147 -175 64 -77 126 -151 138 -165 12 -14 58 -68 102 -120 96 -114 122
-145 154 -179 13 -14 35 -41 50 -60 14 -19 35 -44 46 -56 11 -11 41 -45 67
-75 25 -30 54 -65 65 -76 10 -12 36 -43 58 -70 22 -26 58 -68 80 -92 22 -25
47 -54 55 -66 8 -12 27 -33 42 -48 16 -15 28 -30 28 -34 0 -4 6 -12 14 -18 15
-12 100 -112 216 -251 41 -49 80 -95 85 -101 6 -6 28 -32 50 -59 22 -27 54
-65 70 -84 17 -20 34 -40 38 -46 4 -5 56 -71 115 -145 137 -172 235 -299 291
-374 24 -33 48 -65 53 -70 4 -6 32 -42 60 -81 29 -38 55 -71 60 -73 4 -2 8 -8
8 -13 0 -6 26 -45 58 -87 32 -42 73 -99 92 -127 18 -27 36 -52 39 -55 3 -3 11
-13 16 -22 6 -9 74 -111 153 -227 78 -116 142 -215 142 -221 0 -5 4 -10 8 -10
5 0 14 -10 21 -22 21 -40 71 -118 81 -128 3 -3 21 -25 40 -50 55 -71 61 -78
135 -158 144 -155 286 -289 334 -316 9 -5 23 -17 31 -25 8 -9 39 -36 67 -59
46 -38 58 -43 95 -41 59 3 96 24 104 57 4 15 20 56 36 92 16 36 37 81 45 100
8 19 22 47 30 63 8 15 11 27 6 27 -4 0 -3 4 2 8 13 8 85 168 85 187 0 7 7 18
15 25 9 7 13 15 11 18 -3 3 1 17 8 31 8 14 19 38 25 54 l11 27 47 -24 c103
-52 203 -68 269 -43 37 14 104 69 104 86 0 6 4 11 9 11 9 0 136 251 146 290 1
3 13 30 27 61 15 30 40 93 56 140 56 160 75 295 76 549 0 129 -4 184 -20 270
-15 83 -19 126 -18 220 0 58 4 146 9 195 4 50 9 109 9 132 1 24 3 43 6 43 8 0
8 37 15 675 13 1151 11 1581 -11 1845 -2 25 -6 72 -8 105 -3 33 -7 71 -9 85
-3 14 -8 61 -13 105 -8 78 -10 92 -13 98 -1 1 -4 25 -6 53 -2 29 -6 69 -9 90
-8 57 -18 143 -22 194 -6 72 -13 152 -19 200 -7 72 -18 203 -19 228 0 12 -2
22 -5 22 -4 0 -6 21 -7 48 -1 46 -11 177 -14 177 -1 0 -3 18 -4 40 -5 55 -16
165 -21 195 -4 31 -16 124 -21 168 -2 17 -6 47 -8 65 -2 17 -7 59 -10 92 -4
33 -11 85 -16 115 -5 30 -11 73 -14 95 -8 54 -14 94 -32 195 -8 47 -17 99 -19
115 -3 17 -8 44 -11 60 -4 17 -8 39 -10 50 -2 11 -5 31 -8 45 -3 14 -8 36 -11
50 -39 197 -142 622 -206 850 -5 19 -11 43 -14 53 -2 10 -16 57 -31 105 -14
48 -27 92 -28 97 -3 17 -86 276 -117 365 -16 47 -31 90 -33 95 -2 6 -8 23 -14
38 -7 16 -12 30 -12 32 0 2 -5 16 -12 32 -6 15 -12 31 -12 35 -1 3 -4 10 -8
14 -5 4 -8 13 -8 19 0 7 -7 29 -15 49 -8 20 -15 37 -14 38 1 2 -8 23 -20 47
-13 24 -24 51 -26 60 -6 30 -167 396 -241 548 -41 84 -74 157 -74 163 0 5 -3
10 -7 10 -5 0 -17 19 -27 43 -18 38 -103 191 -126 227 -6 8 -15 24 -20 35 -6
11 -19 34 -30 50 -11 17 -23 37 -27 45 -8 18 -89 135 -117 169 -43 53 -154
159 -197 188 -40 27 -156 93 -162 92 -1 0 -15 5 -32 11 -66 25 -159 37 -286
36 -74 0 -147 -1 -164 -3z m-3533 -3296 c7 -7 65 -56 128 -109 63 -52 132
-111 152 -129 20 -19 54 -48 75 -66 41 -34 58 -50 204 -183 240 -221 605 -586
819 -821 36 -39 76 -84 90 -99 14 -15 50 -56 80 -90 30 -35 64 -73 75 -86 11
-12 39 -44 61 -71 23 -26 51 -58 62 -71 11 -13 35 -42 54 -65 18 -23 42 -51
53 -63 11 -12 25 -28 30 -37 20 -30 209 -262 224 -274 8 -7 11 -13 7 -13 -4 0
-1 -6 6 -14 19 -19 58 -69 137 -177 38 -51 73 -98 78 -104 5 -5 38 -50 73
-100 36 -49 71 -96 77 -103 7 -7 13 -17 13 -22 0 -5 6 -15 13 -22 7 -7 63 -87
125 -178 61 -91 115 -169 120 -175 4 -5 19 -28 32 -50 13 -22 28 -41 32 -43 4
-2 8 -8 8 -13 0 -4 27 -49 60 -98 33 -50 60 -95 60 -101 0 -5 4 -10 9 -10 5 0
11 -8 15 -17 3 -10 14 -30 23 -45 56 -86 213 -350 213 -358 0 -6 4 -10 9 -10
5 0 13 -10 17 -22 3 -13 12 -30 19 -38 11 -14 24 -36 113 -200 19 -36 45 -81
56 -100 12 -19 28 -48 36 -65 8 -16 17 -32 20 -35 3 -3 30 -54 60 -115 30 -60
60 -113 65 -117 6 -5 5 -8 -3 -8 -43 0 -332 268 -617 574 -66 71 -131 141
-145 156 -14 14 -59 64 -100 110 -117 132 -143 162 -170 191 -14 15 -34 38
-44 51 -11 13 -47 54 -80 93 -33 38 -63 74 -68 80 -5 5 -18 22 -31 36 -12 14
-41 47 -64 75 -23 27 -50 59 -60 70 -10 12 -34 41 -53 64 -19 24 -40 48 -45
54 -6 6 -30 36 -55 66 -25 30 -49 60 -55 66 -5 7 -24 29 -42 50 -17 22 -39 49
-50 61 -10 12 -25 30 -33 40 -8 10 -53 66 -100 123 -46 58 -89 111 -95 118 -5
7 -15 18 -20 25 -6 7 -26 32 -45 57 -19 25 -37 47 -40 50 -5 5 -79 97 -92 115
-4 6 -20 26 -36 45 -15 19 -59 76 -97 125 -38 50 -72 92 -75 95 -3 3 -33 41
-65 85 -33 44 -64 85 -70 91 -23 27 -43 52 -73 96 -18 26 -38 52 -44 60 -7 7
-53 67 -102 133 -49 66 -93 122 -98 123 -4 2 -8 8 -8 13 0 5 -17 32 -37 58
-21 27 -78 106 -128 176 -49 69 -98 136 -107 147 -10 12 -18 24 -18 28 0 4 -9
18 -20 31 -12 12 -31 39 -42 59 -12 19 -25 37 -28 40 -3 3 -16 22 -29 43 -13
21 -29 43 -36 50 -7 7 -20 29 -30 47 -10 19 -21 37 -24 40 -13 10 -121 180
-121 190 0 5 -4 10 -10 10 -5 0 -10 4 -10 9 0 5 -22 45 -48 88 -59 97 -128
230 -147 283 -15 43 -14 47 7 27z"/>
</g>
</svg>
